<?xml version="1.0" encoding="utf-8"?>
<!-- Generator: Adobe Illustrator 17.0.0, SVG Export Plug-In . SVG Version: 6.00 Build 0)  -->
<!DOCTYPE svg PUBLIC "-//W3C//DTD SVG 1.1//EN" "http://www.w3.org/Graphics/SVG/1.1/DTD/svg11.dtd">
<svg version="1.1" xmlns="http://www.w3.org/2000/svg" xmlns:xlink="http://www.w3.org/1999/xlink" x="0px" y="0px" width="157px"
	 height="75px" viewBox="0 0 157 75" enable-background="new 0 0 157 75" xml:space="preserve">
<g id="Layer_1" display="none">
	
		<image display="inline" overflow="visible" width="398" height="185" xlink:href="D10D66E5.jpg"  transform="matrix(1 0 0 1 -120.5 -15.5)">
	</image>
</g>
<g id="Layer_3">
	<line fill="none" stroke="#333333" stroke-width="2.25" x1="136.879" y1="53.002" x2="127.727" y2="72.692"/>
	<line fill="none" stroke="#333333" stroke-width="2.25" x1="123.151" y1="53.002" x2="131.61" y2="64.373"/>
	<circle fill="#DAE6EC" cx="68.658" cy="22.566" r="10.815"/>
</g>
<g id="Layer_2">
	<g>
		<path fill="#3399CC" d="M82.166,31.577h4.446c-1.872,3.471-4.451,6.206-7.736,8.204c-3.286,1.999-6.84,2.998-10.661,2.998
			c-3.705,0-7.185-0.916-10.442-2.749c-3.491-1.969-6.171-4.699-8.043-8.19c-1.599-3.022-2.398-6.259-2.398-9.711
			c0-4.036,1.053-7.741,3.159-11.114c2.047-3.276,4.836-5.772,8.365-7.488c2.964-1.423,6.064-2.135,9.301-2.135
			c4.914,0,9.252,1.521,13.016,4.563c2.632,2.106,4.397,4.231,5.294,6.376H82.02c-1.228-1.813-2.749-3.315-4.563-4.504
			C74.61,5.936,71.5,4.99,68.127,4.99c-3.081,0-6.025,0.897-8.833,2.691c-2.613,1.658-4.631,3.919-6.054,6.786
			c-1.268,2.555-1.901,5.109-1.901,7.663c0,3.14,0.907,6.152,2.72,9.038c1.657,2.672,3.939,4.729,6.844,6.171
			c2.437,1.229,4.855,1.843,7.254,1.843c1.696,0,3.432-0.302,5.206-0.907c1.774-0.604,3.364-1.433,4.767-2.486
			C79.456,34.794,80.801,33.39,82.166,31.577z"/>
	</g>
	<g>
		<path fill="#333333" d="M109.225,33.397l-7.078-10.15l-6.991,10.15h-4.738l11.729-17.14l11.816,17.14H109.225z"/>
	</g>
	<g>
		<path fill="#3399CC" d="M99.657,33.397l-7.078-10.15l-6.991,10.15H80.85l11.729-17.14l11.816,17.14H99.657z"/>
	</g>
	<g>
		<path fill="#3399CC" stroke="#3399CC" stroke-width="0.25" d="M18.497,52.105c0.18,0,0.27,0.09,0.27,0.27v1.438
			c0,0.2-0.09,0.299-0.27,0.299H9.033c-0.879,0-1.617,0.295-2.216,0.884c-0.599,0.589-0.899,1.323-0.899,2.201v10.543
			c0,0.44,0.08,0.849,0.24,1.228c0.16,0.379,0.379,0.714,0.659,1.003c0.279,0.29,0.609,0.515,0.988,0.674
			c0.379,0.16,0.788,0.24,1.228,0.24h8.895c0.18,0,0.27,0.09,0.27,0.27v1.408c0,0.18-0.09,0.27-0.27,0.27H9.033
			c-0.699,0-1.358-0.13-1.977-0.389c-0.619-0.259-1.158-0.619-1.617-1.078c-0.46-0.459-0.824-0.998-1.093-1.617
			c-0.27-0.619-0.404-1.288-0.404-2.007V57.196c0-0.679,0.135-1.328,0.404-1.947c0.27-0.619,0.634-1.163,1.093-1.632
			c0.459-0.469,0.998-0.839,1.617-1.108c0.619-0.27,1.278-0.404,1.977-0.404H18.497z"/>
		<path fill="#3399CC" stroke="#3399CC" stroke-width="0.25" d="M28.41,70.854h4.013h0.12c0.319,0,0.659-0.05,1.018-0.15
			c0.279-0.1,0.589-0.27,0.929-0.509c0.279-0.22,0.519-0.469,0.719-0.749c0.18-0.279,0.329-0.599,0.449-0.959
			c0.04-0.12,0.07-0.244,0.09-0.374c0.02-0.13,0.04-0.264,0.06-0.404c0.139-1.717,0.21-3.469,0.21-5.256
			c0-1.787-0.07-3.529-0.21-5.226c-0.02-0.139-0.04-0.274-0.06-0.404c-0.02-0.129-0.05-0.254-0.09-0.374
			c-0.1-0.319-0.25-0.639-0.449-0.959c-0.2-0.279-0.439-0.529-0.719-0.749c-0.34-0.24-0.649-0.409-0.929-0.509
			c-0.359-0.1-0.699-0.15-1.018-0.15h-6.679c-0.34,0-0.689,0.05-1.048,0.15c-0.32,0.1-0.629,0.27-0.929,0.509
			c-0.14,0.1-0.27,0.21-0.389,0.329c-0.12,0.12-0.23,0.26-0.33,0.419c-0.1,0.16-0.185,0.315-0.255,0.464
			c-0.07,0.15-0.125,0.315-0.165,0.494c-0.04,0.16-0.075,0.329-0.105,0.509c-0.03,0.18-0.065,0.359-0.105,0.539
			c-0.02,0-0.04,0.215-0.06,0.644c-0.02,0.43-0.035,0.979-0.045,1.647c-0.01,0.669-0.015,1.398-0.015,2.186
			c0,0.789,0.005,1.553,0.015,2.291c0.01,0.739,0.025,1.398,0.045,1.977c0.02,0.58,0.04,0.979,0.06,1.198
			c0.04,0.18,0.075,0.355,0.105,0.524c0.03,0.17,0.065,0.344,0.105,0.524c0.08,0.32,0.219,0.639,0.419,0.959
			c0.1,0.16,0.21,0.299,0.33,0.419c0.12,0.12,0.249,0.23,0.389,0.329c0.299,0.24,0.609,0.41,0.929,0.509
			c0.359,0.1,0.708,0.15,1.048,0.15h0.06c0.18,0,0.27,0.09,0.27,0.27v1.438c0,0.18-0.09,0.27-0.27,0.27h-0.09
			c-0.12,0-0.22-0.01-0.299-0.03h-0.27l-0.629-0.09c-0.16-0.04-0.314-0.085-0.464-0.135c-0.15-0.05-0.295-0.115-0.434-0.195
			c-0.1-0.04-0.2-0.09-0.299-0.15c-0.1-0.06-0.2-0.11-0.3-0.15c-0.16-0.12-0.31-0.229-0.449-0.329c-0.08-0.06-0.16-0.125-0.24-0.195
			c-0.08-0.07-0.16-0.145-0.24-0.225c-0.08-0.08-0.155-0.159-0.225-0.24c-0.07-0.08-0.145-0.159-0.225-0.24
			c-0.26-0.339-0.479-0.708-0.659-1.108c-0.12-0.24-0.21-0.509-0.27-0.809c-0.08-0.24-0.14-0.499-0.18-0.779
			c-0.04-0.24-0.075-0.484-0.105-0.734c-0.03-0.249-0.065-0.504-0.105-0.763c-0.02-0.36-0.03-0.918-0.03-1.677
			c0-0.759,0-1.562,0-2.411c0-0.848,0.005-1.672,0.015-2.471c0.01-0.798,0.015-1.417,0.015-1.857c0.04-0.24,0.075-0.484,0.105-0.734
			c0.03-0.25,0.065-0.494,0.105-0.734c0.04-0.279,0.1-0.539,0.18-0.779c0.06-0.299,0.15-0.569,0.27-0.809
			c0.18-0.419,0.399-0.789,0.659-1.108c0.08-0.08,0.154-0.16,0.225-0.24c0.07-0.08,0.145-0.16,0.225-0.24
			c0.079-0.08,0.16-0.155,0.24-0.225c0.08-0.07,0.16-0.135,0.24-0.195c0.139-0.1,0.289-0.21,0.449-0.329
			c0.219-0.139,0.419-0.24,0.599-0.299c0.139-0.08,0.284-0.145,0.434-0.195c0.15-0.05,0.304-0.095,0.464-0.135
			c0.1-0.02,0.204-0.04,0.315-0.06c0.11-0.02,0.214-0.03,0.314-0.03c0.139,0,0.229-0.01,0.27-0.03h0.299h0.09h6.499h0.09h0.21
			c0.04,0,0.085,0.005,0.135,0.015c0.05,0.011,0.095,0.015,0.135,0.015c0.139,0,0.259,0.005,0.359,0.015
			c0.1,0.011,0.219,0.035,0.359,0.075l0.629,0.18c0.1,0.04,0.204,0.09,0.314,0.15c0.11,0.06,0.214,0.11,0.314,0.15
			c0.1,0.06,0.19,0.115,0.27,0.165c0.08,0.05,0.16,0.105,0.24,0.165c0.18,0.12,0.339,0.25,0.479,0.389
			c0.1,0.06,0.184,0.13,0.255,0.21c0.07,0.08,0.145,0.16,0.225,0.24c0.06,0.08,0.124,0.16,0.195,0.24
			c0.07,0.08,0.135,0.17,0.195,0.27l0.359,0.539c0.06,0.18,0.139,0.37,0.24,0.569c0.04,0.12,0.07,0.235,0.09,0.345
			c0.02,0.11,0.05,0.224,0.09,0.345c0.04,0.12,0.07,0.235,0.09,0.344c0.02,0.11,0.04,0.235,0.06,0.374l0.03,0.06v0.09
			c0.02,0.24,0.034,0.469,0.045,0.689c0.01,0.22,0.025,0.44,0.045,0.659c0.1,1.338,0.15,2.701,0.15,4.088
			c0,1.388-0.05,2.741-0.15,4.059c-0.02,0.22-0.035,0.439-0.045,0.659c-0.01,0.22-0.025,0.44-0.045,0.659v0.12
			c-0.02,0.02-0.03,0.04-0.03,0.06c-0.02,0.12-0.04,0.24-0.06,0.359c-0.02,0.12-0.05,0.24-0.09,0.359
			c-0.04,0.12-0.07,0.235-0.09,0.345c-0.02,0.11-0.05,0.215-0.09,0.315c-0.04,0.1-0.08,0.2-0.12,0.299
			c-0.04,0.1-0.08,0.2-0.12,0.299l-0.359,0.539c-0.06,0.1-0.125,0.19-0.195,0.27c-0.07,0.08-0.135,0.16-0.195,0.24
			c-0.08,0.08-0.155,0.155-0.225,0.225c-0.07,0.07-0.155,0.145-0.255,0.224c-0.14,0.14-0.299,0.27-0.479,0.39
			c-0.08,0.06-0.16,0.115-0.24,0.165c-0.08,0.05-0.17,0.105-0.27,0.165c-0.1,0.04-0.205,0.09-0.314,0.15
			c-0.11,0.06-0.215,0.11-0.314,0.15l-0.629,0.18c-0.14,0.02-0.26,0.04-0.359,0.06c-0.1,0.02-0.22,0.03-0.359,0.03
			c-0.04,0-0.085,0.005-0.135,0.015c-0.05,0.011-0.095,0.015-0.135,0.015h-0.21h-0.09H28.41c-0.16,0-0.24-0.09-0.24-0.27v-1.438
			C28.171,70.943,28.25,70.854,28.41,70.854z"/>
		<path fill="#3399CC" stroke="#3399CC" stroke-width="0.25" d="M42.636,70.344c0,0.359,0.18,0.539,0.539,0.539h9.015
			c0.419,0,0.824-0.08,1.213-0.24c0.389-0.159,0.723-0.384,1.003-0.674c0.279-0.289,0.504-0.624,0.674-1.003
			c0.169-0.379,0.255-0.789,0.255-1.228V57.166c0-0.419-0.085-0.819-0.255-1.198c-0.17-0.379-0.394-0.704-0.674-0.973
			c-0.28-0.27-0.614-0.484-1.003-0.644c-0.389-0.16-0.794-0.24-1.213-0.24h-7.308c-0.18,0-0.27-0.1-0.27-0.299v-1.438
			c0-0.18,0.09-0.27,0.27-0.27h7.308c0.719,0,1.388,0.135,2.007,0.404c0.619,0.27,1.158,0.634,1.617,1.093
			c0.459,0.459,0.818,0.999,1.078,1.617c0.259,0.619,0.389,1.268,0.389,1.947v10.572c0,0.719-0.13,1.388-0.389,2.007
			c-0.26,0.619-0.619,1.158-1.078,1.617c-0.46,0.46-0.999,0.819-1.617,1.078c-0.619,0.26-1.288,0.389-2.007,0.389H41.648
			c-0.639,0-0.958-0.319-0.958-0.958V57.855v-5.481c0-0.18,0.09-0.27,0.27-0.27h1.408c0.18,0,0.27,0.09,0.27,0.27v3.834V54.65v3.205
			V70.344z"/>
		<path fill="#3399CC" stroke="#3399CC" stroke-width="0.25" d="M75.192,72.83h-3.684h1.288h-7.787
			c-0.699,0-1.358-0.135-1.977-0.404c-0.619-0.27-1.158-0.633-1.617-1.093c-0.46-0.459-0.824-0.998-1.093-1.617
			c-0.27-0.619-0.404-1.278-0.404-1.977V57.166c0-0.699,0.135-1.352,0.404-1.962c0.27-0.609,0.634-1.143,1.093-1.602
			c0.459-0.459,0.998-0.824,1.617-1.093c0.619-0.27,1.278-0.404,1.977-0.404h7.787h-1.288h3.684c0.18,0,0.27,0.09,0.27,0.27v1.408
			c0,0.18-0.09,0.27-0.27,0.27h-2.396h-1.168h-6.619c-0.419,0-0.824,0.08-1.213,0.24c-0.389,0.16-0.724,0.385-1.003,0.674
			c-0.28,0.289-0.505,0.624-0.674,1.003c-0.17,0.38-0.255,0.779-0.255,1.198v10.572c0,0.419,0.085,0.819,0.255,1.198
			c0.169,0.38,0.394,0.714,0.674,1.003c0.279,0.29,0.614,0.515,1.003,0.674c0.389,0.16,0.794,0.24,1.213,0.24h6.619h1.168h2.396
			c0.18,0,0.27,0.09,0.27,0.27v1.408C75.462,72.731,75.372,72.83,75.192,72.83z M71.509,61.449h1.857c0.08,0,0.145,0.03,0.195,0.09
			c0.05,0.06,0.075,0.12,0.075,0.18v1.437c0,0.2-0.09,0.299-0.27,0.299h-0.569h-1.168h-7.488c-0.2,0-0.299-0.1-0.299-0.299v-1.437
			c0-0.06,0.03-0.12,0.09-0.18c0.06-0.06,0.13-0.09,0.21-0.09h8.656H71.509z"/>
		<path fill="#333333" stroke="#333333" stroke-width="0.25" d="M102.507,59.682v5.78v7.098c0,0.18-0.08,0.27-0.24,0.27h-1.438
			c-0.18,0-0.27-0.09-0.27-0.27v-6.559v-0.539v-5.78c0-0.419-0.015-0.868-0.045-1.348c-0.03-0.479-0.095-0.938-0.195-1.378
			c-0.04-0.22-0.095-0.434-0.165-0.644c-0.07-0.21-0.165-0.424-0.284-0.644c-0.24-0.419-0.55-0.758-0.929-1.018l-0.03-0.03h-0.03
			c-0.419-0.299-0.879-0.479-1.378-0.539h-0.749h-0.749h-0.779h-1.318c-0.14,0.04-0.265,0.07-0.374,0.09
			c-0.11,0.02-0.225,0.06-0.345,0.12c-0.16,0.06-0.275,0.115-0.345,0.165c-0.07,0.05-0.175,0.115-0.314,0.195
			c-0.38,0.26-0.689,0.599-0.929,1.018c-0.14,0.22-0.245,0.434-0.314,0.644c-0.07,0.21-0.125,0.424-0.165,0.644
			c-0.08,0.44-0.135,0.898-0.165,1.378c-0.03,0.479-0.045,0.929-0.045,1.348v5.78v7.098c0,0.18-0.09,0.27-0.27,0.27h-1.437
			c-0.18,0-0.27-0.09-0.27-0.27v-6.559v-0.539v-5.78c0-0.419-0.015-0.868-0.045-1.348c-0.03-0.479-0.095-0.938-0.195-1.378
			c-0.04-0.22-0.095-0.434-0.165-0.644c-0.07-0.21-0.165-0.424-0.285-0.644c-0.12-0.219-0.26-0.409-0.419-0.569
			c-0.16-0.159-0.32-0.309-0.479-0.449c-0.02,0-0.03-0.005-0.03-0.015c0-0.01-0.01-0.015-0.03-0.015h-0.03
			c-0.38-0.299-0.839-0.479-1.378-0.539h-0.779h-0.719h-0.749H82.26c-0.12,0.04-0.235,0.07-0.345,0.09
			c-0.11,0.02-0.215,0.06-0.314,0.12c-0.16,0.06-0.28,0.115-0.359,0.165c-0.08,0.05-0.19,0.115-0.329,0.195
			c-0.4,0.299-0.709,0.639-0.929,1.018c-0.12,0.22-0.215,0.434-0.284,0.644c-0.07,0.21-0.125,0.424-0.165,0.644
			c-0.1,0.44-0.165,0.898-0.195,1.378c-0.03,0.479-0.045,0.929-0.045,1.348v5.78v7.098c0,0.18-0.1,0.27-0.299,0.27h-1.378
			c-0.18,0-0.27-0.09-0.27-0.27v-3.654V67.11c0-0.319-0.005-0.629-0.015-0.929c-0.01-0.299-0.005-0.589,0.015-0.868v-5.81
			c0-0.559,0.03-1.158,0.09-1.797c0.06-0.639,0.169-1.228,0.329-1.767c0.16-0.599,0.419-1.148,0.779-1.647
			c0.159-0.259,0.344-0.489,0.554-0.689c0.21-0.199,0.454-0.39,0.734-0.569c0.459-0.339,0.933-0.579,1.423-0.719
			c0.489-0.139,1.013-0.21,1.572-0.21h2.546c0.479,0,0.928,0.045,1.348,0.135c0.419,0.09,0.828,0.254,1.228,0.494
			c0.22,0.12,0.409,0.25,0.569,0.389c0.1,0.06,0.19,0.125,0.27,0.195c0.08,0.07,0.16,0.145,0.24,0.225
			c0.16,0.14,0.309,0.289,0.45,0.449c0.139,0.16,0.279,0.34,0.419,0.539c0,0.04,0.01,0.07,0.03,0.09
			c0.06-0.12,0.139-0.229,0.24-0.329c0.339-0.499,0.759-0.918,1.258-1.258c0.479-0.339,0.959-0.579,1.438-0.719
			c0.479-0.139,1.008-0.21,1.587-0.21h2.546c0.459,0,0.903,0.045,1.333,0.135c0.429,0.09,0.843,0.254,1.243,0.494
			c0.1,0.06,0.195,0.12,0.284,0.18c0.09,0.06,0.185,0.13,0.285,0.21c0.18,0.12,0.349,0.26,0.509,0.42
			c0.359,0.299,0.639,0.629,0.839,0.988c0.259,0.4,0.449,0.809,0.569,1.228c0.12,0.42,0.219,0.849,0.299,1.288
			c0.06,0.459,0.1,0.904,0.12,1.333C102.497,58.809,102.507,59.243,102.507,59.682z"/>
		<path fill="#333333" stroke="#333333" stroke-width="0.25" d="M120.267,70.883c0.259,0,0.434-0.07,0.524-0.21
			c0.09-0.139,0.075-0.329-0.045-0.569c-0.979-2.296-1.952-4.567-2.92-6.814c-0.969-2.246-1.932-4.517-2.89-6.814
			c-0.14-0.279-0.31-0.42-0.509-0.42c-0.2,0-0.37,0.14-0.509,0.42c-1.178,2.736-2.356,5.436-3.534,8.101
			c-1.179,2.666-2.366,5.366-3.564,8.102c-0.02,0.1-0.09,0.15-0.21,0.15h-1.617c-0.1,0-0.175-0.035-0.225-0.105
			c-0.05-0.07-0.045-0.165,0.015-0.284c1.457-3.294,2.91-6.554,4.358-9.779c1.447-3.225,2.9-6.494,4.358-9.809
			c0.1-0.18,0.234-0.319,0.404-0.419c0.169-0.1,0.344-0.15,0.524-0.15c0.18,0,0.349,0.05,0.509,0.15c0.16,0.1,0.279,0.24,0.36,0.419
			c1.437,3.215,2.865,6.415,4.283,9.599c1.417,3.185,2.845,6.394,4.283,9.629c0.12,0.22,0.135,0.4,0.045,0.539
			c-0.09,0.14-0.265,0.21-0.524,0.21h-14.077c-0.28,0-0.359-0.13-0.24-0.389c0.1-0.22,0.204-0.439,0.315-0.659
			c0.11-0.22,0.214-0.469,0.314-0.749c0.04-0.04,0.075-0.075,0.105-0.105c0.03-0.03,0.085-0.045,0.165-0.045H120.267z"/>
	</g>
	<g>
		<path fill="#333333" stroke="#333333" stroke-width="0.25" d="M150.244,70.883c0.259,0,0.434-0.07,0.524-0.21
			c0.09-0.139,0.075-0.329-0.045-0.569c-0.979-2.296-1.952-4.567-2.92-6.814c-0.969-2.246-1.932-4.517-2.89-6.814
			c-0.14-0.279-0.31-0.42-0.509-0.42c-0.2,0-0.37,0.14-0.509,0.42c-1.178,2.736-2.356,5.436-3.534,8.101
			c-1.178,2.666-2.366,5.366-3.564,8.102c-0.02,0.1-0.09,0.15-0.21,0.15h-1.617c-0.1,0-0.175-0.035-0.225-0.105
			c-0.05-0.07-0.045-0.165,0.015-0.284c1.457-3.294,2.91-6.554,4.358-9.779c1.447-3.225,2.9-6.494,4.358-9.809
			c0.1-0.18,0.234-0.319,0.404-0.419c0.169-0.1,0.344-0.15,0.524-0.15c0.18,0,0.349,0.05,0.509,0.15c0.16,0.1,0.28,0.24,0.36,0.419
			c1.437,3.215,2.865,6.415,4.283,9.599c1.417,3.185,2.845,6.394,4.283,9.629c0.12,0.22,0.135,0.4,0.045,0.539
			c-0.09,0.14-0.265,0.21-0.524,0.21h-14.077c-0.28,0-0.359-0.13-0.24-0.389c0.1-0.22,0.204-0.439,0.315-0.659
			c0.11-0.22,0.214-0.469,0.314-0.749c0.04-0.04,0.075-0.075,0.105-0.105c0.03-0.03,0.085-0.045,0.165-0.045H150.244z"/>
	</g>
</g>
</svg>
